<svg width="120" height="120" viewBox="0 0 120 120" fill="none" xmlns="http://www.w3.org/2000/svg">
<mask id="mask0_2_37" style="mask-type:alpha" maskUnits="userSpaceOnUse" x="12" y="24" width="96" height="96">
<path d="M19.9999 120C19.9999 120 11.9999 120 11.9999 112C11.9999 104 19.9999 80 59.9999 80C99.9999 80 108 104 108 112C108 120 99.9999 120 99.9999 120H19.9999ZM59.9999 72C66.3651 72 72.4696 69.4714 76.9705 64.9706C81.4714 60.4697 83.9999 54.3652 83.9999 48C83.9999 41.6348 81.4714 35.5303 76.9705 31.0294C72.4696 26.5286 66.3651 24 59.9999 24C53.6347 24 47.5303 26.5286 43.0294 31.0294C38.5285 35.5303 35.9999 41.6348 35.9999 48C35.9999 54.3652 38.5285 60.4697 43.0294 64.9706C47.5303 69.4714 53.6347 72 59.9999 72Z" fill="#DADADA"/>
</mask>
<g mask="url(#mask0_2_37)">
<circle cx="59.9999" cy="60" r="60" fill="#DADADA"/>
</g>
<circle cx="60" cy="60" r="59.5" stroke="#DADADA"/>
<circle cx="100" cy="100" r="20" fill="#5E49FF"/>
<path d="M110.5 106C110.5 106.398 110.342 106.779 110.061 107.061C109.78 107.342 109.398 107.5 109 107.5H91.0002C90.6024 107.5 90.2208 107.342 89.9395 107.061C89.6582 106.779 89.5002 106.398 89.5002 106V97C89.5002 96.6022 89.6582 96.2206 89.9395 95.9393C90.2208 95.658 90.6024 95.5 91.0002 95.5H92.7582C93.951 95.4993 95.0948 95.0251 95.9382 94.1815L97.1832 92.9395C97.4637 92.6589 97.8439 92.5009 98.2407 92.5H101.757C102.154 92.5001 102.536 92.6582 102.817 92.9395L104.059 94.1815C104.477 94.5996 104.973 94.9312 105.52 95.1574C106.066 95.3837 106.651 95.5001 107.242 95.5H109C109.398 95.5 109.78 95.658 110.061 95.9393C110.342 96.2206 110.5 96.6022 110.5 97V106ZM91.0002 94C90.2045 94 89.4415 94.3161 88.8789 94.8787C88.3163 95.4413 88.0002 96.2044 88.0002 97V106C88.0002 106.796 88.3163 107.559 88.8789 108.121C89.4415 108.684 90.2045 109 91.0002 109H109C109.796 109 110.559 108.684 111.122 108.121C111.684 107.559 112 106.796 112 106V97C112 96.2044 111.684 95.4413 111.122 94.8787C110.559 94.3161 109.796 94 109 94H107.242C106.447 93.9998 105.684 93.6836 105.121 93.121L103.879 91.879C103.317 91.3164 102.554 91.0002 101.758 91H98.2422C97.4466 91.0002 96.6837 91.3164 96.1212 91.879L94.8792 93.121C94.3167 93.6836 93.5538 93.9998 92.7582 94H91.0002Z" fill="white"/>
<path d="M100 104.5C99.0055 104.5 98.0517 104.105 97.3484 103.402C96.6451 102.698 96.2501 101.745 96.2501 100.75C96.2501 99.7554 96.6451 98.8016 97.3484 98.0983C98.0517 97.3951 99.0055 97 100 97C100.995 97 101.948 97.3951 102.652 98.0983C103.355 98.8016 103.75 99.7554 103.75 100.75C103.75 101.745 103.355 102.698 102.652 103.402C101.948 104.105 100.995 104.5 100 104.5ZM100 106C101.392 106 102.728 105.447 103.712 104.462C104.697 103.478 105.25 102.142 105.25 100.75C105.25 99.3576 104.697 98.0223 103.712 97.0377C102.728 96.0531 101.392 95.5 100 95.5C98.6077 95.5 97.2723 96.0531 96.2877 97.0377C95.3032 98.0223 94.7501 99.3576 94.7501 100.75C94.7501 102.142 95.3032 103.478 96.2877 104.462C97.2723 105.447 98.6077 106 100 106ZM92.5001 97.75C92.5001 97.9489 92.421 98.1397 92.2804 98.2803C92.1397 98.421 91.949 98.5 91.7501 98.5C91.5511 98.5 91.3604 98.421 91.2197 98.2803C91.0791 98.1397 91.0001 97.9489 91.0001 97.75C91.0001 97.5511 91.0791 97.3603 91.2197 97.2197C91.3604 97.079 91.5511 97 91.7501 97C91.949 97 92.1397 97.079 92.2804 97.2197C92.421 97.3603 92.5001 97.5511 92.5001 97.75Z" fill="white"/>
</svg>
